# Convex boundary triangles for ellipsoid.node
# <face count> <boundary-marker count>
48 0
1 2 25 13
2 6 12 22
3 3 20 16
4 3 9 23
5 1 21 8
6 5 11 21
7 3 24 9
8 6 20 16
9 6 22 18
10 4 21 17
11 15 5 19
12 4 22 8
13 4 10 25
14 7 19 1
15 1 11 19
16 6 14 24
17 5 25 17
18 3 16 24
19 3 15 19
20 10 26 2
21 2 10 25
22 2 14 24
23 4 8 21
24 2 23 9
25 5 13 25
26 4 18 22
27 2 13 23
28 4 18 26
29 4 25 17
30 2 24 9
31 5 23 15
32 3 19 7
33 2 14 26
34 1 12 20
35 6 26 18
36 3 7 20
37 5 21 17
38 4 26 10
39 3 23 15
40 1 12 22
41 8 22 1
42 1 20 7
43 6 24 16
44 5 19 11
45 6 12 20
46 1 11 21
47 13 5 23
48 6 14 26
