# 26 samples on an ellipsoid with radii (1.5, 1.0, 0.75)
# <point count> <dimension> <attribute count> <boundary-marker count>
26 3 0 1
# <id> <x> <y> <z> <boundary marker>
1   1.5000000   0.0000000   0.0000000  1
2  -1.5000000   0.0000000   0.0000000  1
3   0.0000000   1.0000000   0.0000000  1
4   0.0000000  -1.0000000   0.0000000  1
5   0.0000000   0.0000000   0.7500000  1
6   0.0000000   0.0000000  -0.7500000  1
7   1.0606602   0.7071068   0.0000000  1
8   1.0606602  -0.7071068   0.0000000  1
9  -1.0606602   0.7071068   0.0000000  1
10 -1.0606602  -0.7071068   0.0000000  1
11  1.0606602   0.0000000   0.5303301  1
12  1.0606602   0.0000000  -0.5303301  1
13 -1.0606602   0.0000000   0.5303301  1
14 -1.0606602   0.0000000  -0.5303301  1
15  0.0000000   0.7071068   0.5303301  1
16  0.0000000   0.7071068  -0.5303301  1
17  0.0000000  -0.7071068   0.5303301  1
18  0.0000000  -0.7071068  -0.5303301  1
19  0.8660254   0.5773503   0.4330127  1
20  0.8660254   0.5773503  -0.4330127  1
21  0.8660254  -0.5773503   0.4330127  1
22  0.8660254  -0.5773503  -0.4330127  1
23 -0.8660254   0.5773503   0.4330127  1
24 -0.8660254   0.5773503  -0.4330127  1
25 -0.8660254  -0.5773503   0.4330127  1
26 -0.8660254  -0.5773503  -0.4330127  1
